<svg width="240" height="72" viewBox="0 0 240 72" fill="none" xmlns="http://www.w3.org/2000/svg">
  <rect width="240" height="72" rx="28" fill="#FFFDF1"/>
  <path d="M37 18c10.5 0 19 7.7 19 17.2 0 10.8-10.2 18.8-19 18.8s-19-8-19-18.8C18 25.7 26.5 18 37 18Z" fill="#F45D8D"/>
  <path d="M24 37h26L38.6 61.5c-.7 1.5-2.8 1.5-3.5 0L24 37Z" fill="#D9954A"/>
  <path d="M28 42h18M31 49h12" stroke="#8E5628" stroke-width="2" stroke-linecap="round"/>
  <circle cx="31" cy="28" r="8" fill="#FFD978"/>
  <circle cx="43" cy="29" r="8" fill="#C4F763"/>
  <circle cx="37" cy="22" r="8" fill="#A7D8F5"/>
  <circle cx="45" cy="18" r="3" fill="#F45D8D"/>
  <path d="M73 28.5c0-8.8 6.8-15.2 16.5-15.2 6.2 0 11.1 2.8 13.8 7.2l-8 4.6c-1.3-2.3-3.4-3.7-6.5-3.7-4.5 0-7.5 3-7.5 7.1 0 4.3 3 7.3 7.7 7.3 3 0 5.2-1.4 6.6-3.8l8 4.6c-2.8 4.7-7.8 7.4-14.1 7.4C79.7 44 73 37.5 73 28.5Z" fill="#171712"/>
  <path d="M108.6 14h9v29.3h-9V14Zm12.4 8.4h8.5v3.1c1.7-2.3 4.2-3.7 7.6-3.7 5.9 0 9.8 4 9.8 10.4v11.1h-8.8v-9.9c0-2.8-1.4-4.3-3.9-4.3-2.9 0-4.5 1.8-4.5 5v9.2H121V22.4Zm30.7 10.5c0-6.5 5.2-11.1 12.4-11.1 7.1 0 12.3 4.6 12.3 11.1S171.2 44 164.1 44c-7.2 0-12.4-4.6-12.4-11.1Zm15.8 0c0-2.6-1.4-4.2-3.4-4.2-2.1 0-3.5 1.6-3.5 4.2s1.4 4.2 3.5 4.2c2 0 3.4-1.6 3.4-4.2Z" fill="#171712"/>
  <path d="M182.6 22.4h8.5v2.9c1.5-2.2 3.9-3.5 7.1-3.5 3.5 0 6.2 1.5 7.7 4.1 1.8-2.5 4.7-4.1 8.4-4.1 5.5 0 9.1 3.7 9.1 10.1v11.4h-8.8V33.1c0-2.7-1.2-4-3.4-4-2.4 0-3.8 1.6-3.8 4.6v9.6h-8.8V33.1c0-2.7-1.2-4-3.4-4-2.4 0-3.8 1.6-3.8 4.6v9.6h-8.8V22.4Z" fill="#171712"/>
  <path d="M75 55h82" stroke="#F45D8D" stroke-width="4" stroke-linecap="round"/>
  <path d="M165 55h28" stroke="#C4F763" stroke-width="4" stroke-linecap="round"/>
</svg>
